<svg xmlns="http://www.w3.org/2000/svg" width="24" height="24" viewBox="0 0 24 24">
    <g fill="none" fill-rule="evenodd">
        <path d="M0 0H24V24H0z"/>
        <path fill="#000" fill-opacity=".5" d="M12 2c2.652 0 5.196 1.054 7.071 2.929C20.946 6.804 22 9.348 22 12c0 5.523-4.477 10-10 10S2 17.523 2 12 6.477 2 12 2zm0 1.5c-4.694 0-8.5 3.806-8.5 8.5s3.806 8.5 8.5 8.5c2.254 0 4.416-.896 6.01-2.49 1.594-1.594 2.49-3.756 2.49-6.01 0-4.694-3.806-8.5-8.5-8.5zm0 2.75c.38 0 .693.282.743.648L12.75 7v4.25H16c.38 0 .693.282.743.648l.007.102c0 .38-.282.693-.648.743L16 12.75h-4c-.38 0-.693-.282-.743-.648L11.25 12V7c0-.414.336-.75.75-.75z"/>
    </g>
</svg>
